PathFileType	4	(X/Y/Z)	OpenSim_Sub04_EMGStiffKnee_Gyro.trc
DataRate	CameraRate	NumFrames	NumMarkers	Units	OrigDataRate	OrigDataStartFrame	OrigNumFrames
100	100	37	8	m	100	7243	8277
Frame#	Time	torso_imu_offset_imu	pelvis_imu_offset_imu	tibia_r_imu_offset_imu	femur_r_imu_offset_imu	tibia_l_imu_offset_imu	femur_l_imu_offset_imu	toes_r_imu_offset_imu	toes_l_imu_offset_imu
				X1	Y1	Z1	X2	Y2	Z2	X3	Y3	Z3	X4	Y4	Z4	X5	Y5	Z5	X6	Y6	Z6	X7	Y7	Z7	X8		Y8	Z8	

7243	72.42000000	0.17611154	0.10956605	-0.18727217	0.34151256	0.05574309	0.24539669	-0.56680953	1.27876561	4.35430217	1.52507988	0.06468656	0.19518909	0.51093941	-0.07751462	0.77745787	0.55227952	-0.15789394	0.74350005	-0.77169196	3.54656336	1.74445454	-0.05874862	-0.13010111	0.34071086
7244	72.43000000	0.14594134	0.08287974	-0.16535311	0.40471379	-0.00839926	0.26775576	-0.67526826	1.04734030	3.90622791	1.29859121	0.01698517	0.04382091	0.47972390	-0.08704683	0.81806384	0.59038146	-0.12791863	0.73615707	-0.81694768	3.12522618	1.74391937	-0.03428624	-0.15289629	0.33392479
7245	72.44000000	0.12314297	0.06507861	-0.14126814	0.46683455	-0.06136078	0.28888977	-0.71926829	0.83854620	3.47292694	0.87898154	-0.01794234	-0.09391911	0.47815713	-0.08976307	0.88171890	0.59465212	-0.11946341	0.76462744	-0.72530507	2.70542291	1.73181287	0.00499947	-0.17299236	0.32800374
7246	72.45000000	0.10304465	0.04798418	-0.12129358	0.52061613	-0.09498411	0.29344216	-0.69952508	0.70917630	3.10291196	0.38325503	-0.04965967	-0.20568860	0.49619146	-0.08997576	0.94116520	0.56060543	-0.12885998	0.80085581	-0.42492441	2.41629854	1.58217852	0.00659674	-0.22850814	0.35884039
7247	72.46000000	0.08691393	0.01388268	-0.09596502	0.57325631	-0.09144889	0.27227548	-0.62540166	0.56563125	2.74580998	-0.12718689	-0.09905000	-0.26401086	0.48835003	-0.08493387	0.99182269	0.50475339	-0.15616755	0.81728756	-0.14796843	2.06675879	1.26007241	0.01865896	-0.27261544	0.36687846
7248	72.47000000	0.06173162	-0.01950738	-0.06885107	0.60743289	-0.06331759	0.23714066	-0.50329679	0.41305209	2.31215348	-0.60878633	-0.14364098	-0.26328035	0.46945593	-0.07574374	1.06758978	0.48195149	-0.17927593	0.80244919	-0.18499601	1.68540880	0.92711620	0.07108119	-0.31655285	0.36081064
7249	72.48000000	0.02208309	-0.03354814	-0.04929707	0.62879239	-0.04498463	0.18974512	-0.32170167	0.31373839	1.78197759	-0.92088505	-0.17784797	-0.18803011	0.48650337	-0.08449691	1.16257618	0.48711863	-0.15717034	0.76059507	-0.14073815	1.08566551	0.53080854	0.11395841	-0.37386980	0.36578811
7250	72.49000000	-0.02313449	-0.04279093	-0.02960115	0.64791491	-0.02832440	0.15140235	-0.07267753	0.14488735	1.22595165	-0.97178109	-0.25868402	-0.04407270	0.48014485	-0.07847361	1.26579275	0.54196748	-0.08768984	0.69196878	0.38810436	0.47851765	-0.03803874	0.13651156	-0.43870144	0.35753057
7251	72.50000000	-0.06237152	-0.05838477	-0.00551044	0.63856784	0.01192184	0.11913086	0.10819115	-0.11020892	0.68067205	-0.86217309	-0.40640707	0.12795789	0.50084798	-0.06371840	1.35067930	0.64874295	0.00701259	0.61308380	1.24184481	0.04464841	-0.59396819	0.16755449	-0.51331543	0.34046551
7252	72.51000000	-0.08338883	-0.10380073	0.02213916	0.60076837	0.07299167	0.09337361	0.15335980	-0.30366855	0.10531651	-0.72987894	-0.57344256	0.27179350	0.55588824	-0.03455941	1.43012241	0.78188761	0.13007949	0.55791437	1.74064276	-0.61331777	-1.03899500	0.24533262	-0.60265008	0.29592565
7253	72.52000000	-0.10494943	-0.17038818	0.05385917	0.54368918	0.15475412	0.06969585	0.22751704	-0.46505926	-0.51298796	-0.58638390	-0.73327019	0.35314962	0.60154570	0.00136506	1.53188767	0.90663000	0.24334508	0.52273382	2.11996017	-1.97802144	-1.02743592	0.32962455	-0.70300549	0.24202389
7254	72.53000000	-0.13484420	-0.24073468	0.08848329	0.45377117	0.24459846	0.03648887	0.27566168	-0.70843180	-1.19117029	-0.43130407	-0.90723193	0.38660927	0.64022971	0.02443844	1.62453452	0.99788764	0.30912733	0.52951884	1.01464583	-2.93085223	0.15341432	0.41139694	-0.82009023	0.19648318
7255	72.54000000	-0.15248401	-0.32126135	0.12713719	0.34906376	0.33824978	0.00695703	0.18812473	-0.82347080	-2.06605750	-0.29005568	-1.04909770	0.39680191	0.66934633	0.05067820	1.68042537	1.00651058	0.31661487	0.58584846	0.68950288	-2.79204728	0.92368201	0.49584383	-0.98597111	0.16316438
7256	72.55000000	-0.14146477	-0.40343968	0.17362560	0.19238731	0.47997079	0.00060787	0.55212513	-0.98391599	-2.87983845	0.01202105	-0.96493414	0.38496410	0.62562008	0.07547689	1.70373711	0.90845105	0.29711470	0.62590207	4.84348552	-0.96028504	-1.23143875	0.55878463	-1.19894208	0.13625678
7257	72.56000000	-0.12660080	-0.42194706	0.21762756	-0.07373348	0.59095379	-0.00755200	0.49705024	-1.16874037	-3.12579520	0.53148909	-0.58790185	0.31848358	0.55923248	0.09710350	1.73146308	0.82783834	0.27589370	0.64424750	2.25007741	-0.79183869	-1.71024825	0.64576629	-1.49871318	0.11453224
7258	72.57000000	-0.12460566	-0.36075772	0.22234856	-0.26787689	0.45533879	-0.01667122	0.27815730	-0.45869317	-2.44510839	0.68097560	-0.31858219	0.17569784	0.48627626	0.08018312	1.77655746	0.69636657	0.28399762	0.61902580	-0.71352262	-1.44597482	-0.41097000	0.77588857	-1.83146593	0.11450139
7259	72.58000000	-0.09260231	-0.32625218	0.18561097	-0.20187744	0.12905581	0.04222040	1.36473945	0.58213543	-1.18438175	0.58293591	-0.47000613	-0.02347193	0.39199325	0.08127803	1.82636982	0.46795374	0.34838169	0.51047305	1.78425720	-0.60841466	-0.50375326	0.85366455	-2.08336109	0.14315982
7260	72.59000000	-0.03776698	-0.35969507	0.15581782	-0.03782433	-0.04505927	0.20233538	1.91505127	0.55663871	-0.65483712	0.84526690	-0.69335242	-0.09642598	0.30635776	0.08903128	1.87365840	0.28646885	0.41594648	0.33544588	1.10099184	-0.70389204	-0.26074821	0.89531099	-2.33366571	0.19027421
7261	72.60000000	-0.03347540	-0.38992581	0.12798437	-0.01053510	-0.04716035	0.36008597	1.64197846	-0.15893225	-1.09170752	1.06398122	-0.61138332	-0.14194603	0.16806460	0.02762474	1.95210697	0.19238309	0.51373827	0.10802908	0.58631759	-0.34385280	-0.11024103	0.91412010	-2.63078234	0.26921746
7262	72.61000000	-0.09732479	-0.40440532	0.10398659	-0.07048838	-0.05089858	0.41452673	1.61558989	-0.55188095	-1.66179217	1.19012020	-0.45503853	-0.27095704	0.11583323	-0.00787862	2.06200774	0.22232064	0.67121468	-0.13771630	0.41840230	-0.14632527	-0.08781544	0.95450523	-2.89808169	0.33513346
7263	72.62000000	-0.15011344	-0.39588618	0.09590441	-0.11806099	-0.05333506	0.38717310	1.19219323	-0.63857409	-1.91383469	1.14312923	-0.43105141	-0.34651170	0.18907424	-0.03095288	2.15246807	0.41835008	0.82596186	-0.35378900	0.44254234	-0.23315224	-0.05941759	1.20265172	-3.11867076	0.36488483
7264	72.63000000	-0.16740132	-0.36498686	0.10285402	-0.12452652	-0.03513778	0.33914924	0.49403758	-0.62298595	-1.90579095	0.79928314	-0.42813344	-0.48895766	0.24212306	-0.11162997	2.22790634	0.65532653	0.95721211	-0.50175820	0.26275236	-0.15070690	0.02995119	1.26820837	-3.25807914	0.53700986
7265	72.64000000	-0.18910216	-0.33478427	0.13810313	-0.07529817	0.05586882	0.29803506	0.06088634	-0.54082100	-1.77018451	0.54587597	-0.44906283	-0.78833179	0.24890316	-0.16890875	2.27058281	0.83889441	1.04202419	-0.60973295	-0.02743939	-0.13712230	0.08209722	1.17149892	-3.34665482	0.78445212
7266	72.65000000	-0.21233791	-0.29290708	0.19054044	-0.02747667	0.19473549	0.24549365	-0.21742219	-0.49545954	-1.33823901	0.22813287	-0.48230460	-1.18177032	0.18752230	-0.19231641	2.26082692	0.96007732	1.05829874	-0.74575111	0.10888532	-0.12353942	0.04888769	1.39897008	-3.41258558	0.98663493
7267	72.66000000	-0.18672457	-0.25372842	0.23439422	-0.02923588	0.25980985	0.17428485	-0.49232407	-0.45252083	-0.69865144	-0.30987984	-0.47807327	-1.53206356	0.01489225	-0.22060798	2.19451140	0.92308682	1.00658159	-0.88482548	0.03368300	-0.17082302	0.08560740	1.56288050	-3.38899874	1.22670380
7268	72.67000000	-0.12781070	-0.22246161	0.25110343	-0.06620429	0.23624535	0.09326145	-0.66520715	-0.42020863	-0.16008324	-0.78481352	-0.46588595	-1.72196633	-0.20141454	-0.26926803	2.04776986	0.66049564	0.87484528	-0.92737259	-0.04832005	-0.17685364	0.12078372	1.48612341	-3.07301433	1.46902574
7269	72.68000000	-0.07798864	-0.20351603	0.23704045	-0.10097008	0.18339136	0.01228874	-0.70206656	-0.33750054	0.06852677	-0.98638506	-0.43213456	-1.76116638	-0.37550696	-0.35831666	1.85977391	0.25330637	0.72002031	-0.84757592	-0.05434203	-0.18588481	0.13168973	1.66120372	-2.51604533	1.65116899
7270	72.69000000	-0.02018413	-0.18725542	0.20852965	-0.13509326	0.13078408	-0.05285565	-0.62154447	-0.21320236	-0.11029060	-1.01988822	-0.37588905	-1.71699380	-0.57851411	-0.44272497	1.66804348	-0.10603262	0.62002825	-0.69025762	-0.10083831	-0.19085737	0.17223898	1.85971432	-1.98350285	1.84784893
7271	72.70000000	0.01469064	-0.17438106	0.19412869	-0.17057687	0.08902971	-0.10335989	-0.45936818	-0.21455329	-0.47823862	-1.00497432	-0.39043348	-1.61614044	-0.72047861	-0.49444034	1.44746803	-0.29522301	0.54041943	-0.56493311	-0.13357796	-0.17589221	0.20806772	2.14383999	-1.23705940	1.74510466
7272	72.71000000	-0.00832607	-0.16512986	0.18353620	-0.20703337	0.05304807	-0.16213490	-0.29050643	-0.28135885	-0.74654278	-0.94641965	-0.47391767	-1.50735168	-0.59205457	-0.54048705	1.19648378	-0.40501521	0.42963202	-0.52423083	-0.11160072	-0.18086231	0.18276652	1.41315758	-0.00728030	1.45835456
7273	72.72000000	-0.03067060	-0.15187050	0.17443687	-0.24088264	0.02402287	-0.21441550	-0.09902573	-0.29542454	-0.82040988	-0.82071735	-0.53361986	-1.42610797	-0.02038698	-0.64699310	0.81177986	-0.54238615	0.21501611	-0.47513682	-0.03756379	-0.13436257	0.14665222	0.39092806	0.90268572	1.29987274
7274	72.73000000	-0.04870215	-0.13962027	0.17405845	-0.24914043	0.02551843	-0.27665009	0.04317983	-0.28974947	-0.70589246	-0.62538094	-0.54476264	-1.34586644	0.90335599	-0.62061644	0.06276727	-0.70280169	-0.13285820	-0.33617041	-0.01033911	-0.05518943	0.11540999	0.26839682	1.53504753	1.05632913
7275	72.74000000	-0.10723042	-0.12392406	0.18334494	-0.21480837	0.03953990	-0.34331475	0.07515066	-0.20944146	-0.48913955	-0.45758837	-0.54459272	-1.26815239	1.32025927	-0.23996790	-0.99377530	-0.84883533	-0.42868845	-0.14267894	0.03100199	-0.00150521	0.05865745	0.06297129	2.18347654	0.80592826
7276	72.75000000	-0.16367831	-0.11458535	0.18713028	-0.15675046	0.04360372	-0.38958542	0.13663367	-0.13289071	-0.22820760	-0.38097719	-0.56466674	-1.21415352	1.04597306	0.04180478	-1.97181481	-0.85931324	-0.51094276	-0.03464946	0.07315489	0.04545941	0.02336884	-0.15284985	2.52823742	0.62351909
7277	72.76000000	-0.19590810	-0.10280703	0.17247092	-0.08281015	0.02906833	-0.40482608	0.21594068	-0.08308745	0.02489282	-0.33445399	-0.61484281	-1.18532493	0.91543910	-0.00515223	-2.55025659	-0.70984871	-0.43592900	-0.06998459	0.07763220	0.09585369	0.00439006	-0.45167102	2.78578116	0.47032764
7278	72.77000000	-0.22654317	-0.09713491	0.15340427	-0.00185545	0.01350471	-0.38482740	0.25983074	0.00553190	0.18276444	-0.34218759	-0.67410278	-1.19045678	1.01151379	0.02986876	-2.77504970	-0.52030418	-0.33206687	-0.18659932	0.09528057	0.13475759	-0.02033257	-0.64809931	2.94712570	0.36196661
7279	72.78000000	-0.28743497	-0.08173584	0.14525561	0.07578893	0.00258057	-0.36391920	0.32511287	0.04127237	0.23148430	-0.42276414	-0.70749856	-1.23926683	1.04123838	0.13555268	-2.83085846	-0.42294693	-0.24239613	-0.33639777	0.14347765	0.18187634	-0.06505404	-0.65320210	3.07514178	0.26962844
